<svg id="uuid-588fe919-40d5-4cd4-ba0b-9913154d9b1c" xmlns="http://www.w3.org/2000/svg" width="18" height="18" viewBox="0 0 18 18">
  <rect x="7.862" y="5.437" width="7.182" height="1.396" rx=".698" ry=".698"/>
  <path d="m12.98,8.144h-4.395c-.335,0-.644.225-.71.554-.09.449.251.842.683.842h3.022c.268-.557.67-1.076,1.399-1.396Z"/>
  <path d="m17.436,11.063c0-1.461-1.18-2.645-2.636-2.645s-2.636,1.184-2.636,2.645c0,.892.441,1.679,1.115,2.158l-.169,3.387c-.008.161.116.298.276.306.083.004.164-.027.222-.086l1.146-.726,1.137.736c.113.115.297.117.412.004.059-.058.091-.138.087-.22l-.131-3.357c.709-.474,1.176-1.283,1.176-2.202Z"/>
  <path d="m12.701,13.482c-.193-.168-.358-.362-.504-.568H1.905c-.506,0-.917-.412-.917-.917V2.98c0-.506.412-.917.917-.917h14.19c.506,0,.917.412.917.917v5.691c.48.427.831.99.987,1.634V2.98c0-1.05-.855-1.905-1.905-1.905H1.905C.855,1.075,0,1.93,0,2.98v9.017C0,13.047.855,13.902,1.905,13.902h10.776l.021-.419Z"/>
  <g>
    <path d="m4.637,8.479c-1.187,0-2.154-.966-2.154-2.153s.966-2.153,2.154-2.153,2.153.966,2.153,2.153-.966,2.153-2.153,2.153Zm0-3.319c-.643,0-1.166.523-1.166,1.166s.523,1.166,1.166,1.166,1.166-.523,1.166-1.166-.523-1.166-1.166-1.166Z"/>
    <path d="m7.457,10.311h-.987c0-1.01-.822-1.832-1.832-1.832s-1.832.822-1.832,1.832h-.987c0-1.554,1.265-2.819,2.82-2.819s2.819,1.265,2.819,2.819Z"/>
  </g>
  <g id="uuid-51c02749-836c-4702-ab14-9b01ec3151e7">
    <path d="m14.338,12.249c-.079,0-.154-.031-.209-.087l-.859-.859c-.111-.12-.103-.307.017-.418.113-.104.288-.104.401,0l.65.652,1.592-1.593c.12-.111.307-.103.418.017.104.113.104.288,0,.401l-1.801,1.801c-.056.055-.131.085-.209.085Z" fill="#fff"/>
  </g>
</svg>